<?xml version="1.0" encoding="UTF-8"?>
<svg version="1.1" xmlns="http://www.w3.org/2000/svg" width="512" height="512">
<path d="M0 0 C1.1052301 -0.00794586 2.21046021 -0.01589172 3.34918213 -0.02407837 C6.52215055 -0.04162178 9.69421328 -0.03661304 12.8671875 -0.0234375 C13.82751892 -0.02936417 14.78785034 -0.03529083 15.77728271 -0.04139709 C20.67620047 0.00959538 24.19149381 0.09924402 28.125 3.375 C29.67086876 6.46673752 29.41859521 8.96929552 29.125 12.375 C27.75634766 14.57006836 27.75634766 14.57006836 25.125 16.375 C21.65717508 16.9668569 18.2215644 16.90842426 14.7109375 16.87890625 C13.67702377 16.88701324 12.64311005 16.89512024 11.5778656 16.9034729 C9.36564615 16.92042224 7.15335419 16.92942332 4.94107056 16.9312439 C-0.7991002 16.94167992 -6.5379352 17.0277987 -12.27734375 17.1171875 C-13.39500626 17.13410141 -14.51266876 17.15101532 -15.66419983 17.16844177 C-27.55189876 17.37600415 -39.14834062 18.36360733 -50.875 20.375 C-52.67445068 20.67881592 -52.67445068 20.67881592 -54.51025391 20.98876953 C-99.89848697 28.83400152 -141.64141077 44.13532917 -182.875 64.375 C-183.61999756 64.67414307 -184.36499512 64.97328613 -185.13256836 65.28149414 C-186.98790743 66.24554876 -186.98790743 66.24554876 -187.79663086 68.09179688 C-187.91419889 71.51701869 -186.59043673 73.82429445 -185.12890625 76.90625 C-184.53260257 78.20545369 -183.93692015 79.50494267 -183.34179688 80.8046875 C-182.39788482 82.83142974 -181.44732586 84.85441727 -180.48413086 86.87207031 C-175.97581599 96.37386834 -172.4797553 104.81328618 -175.8190918 115.35546875 C-177.08188842 118.50726308 -178.48031088 121.55847686 -179.9375 124.625 C-187.26217581 140.93819368 -193.35943391 158.57437518 -195.875 176.375 C-196.02453125 177.42171875 -196.1740625 178.4684375 -196.328125 179.546875 C-195.63801171 185.37714249 -192.71858752 189.61246198 -189.6875 194.5625 C-189.05328125 195.62114258 -188.4190625 196.67978516 -187.765625 197.77050781 C-163.46350304 238.05260361 -135.03153321 275.69871227 -102.921875 310.08203125 C-101.2531206 311.86947775 -99.61111597 313.67320708 -97.99047852 315.50463867 C-91.93229622 322.34434248 -85.56951741 328.8339628 -79.09985352 335.28051758 C-77.3082405 337.0667467 -75.52206945 338.85829347 -73.73632812 340.65039062 C-68.48479169 345.90497877 -63.23572125 351.09751825 -57.5769043 355.91821289 C-54.82413902 358.27451047 -52.20468064 360.77139088 -49.5625 363.25 C-44.66675582 367.80889415 -39.6285236 372.11497673 -34.41015625 376.3046875 C-32.06005214 378.22387884 -29.80639815 380.2085899 -27.5625 382.25 C-23.77752733 385.64764153 -19.86421732 388.8477225 -15.875 392 C-15.31772217 392.44327637 -14.76044434 392.88655273 -14.1862793 393.34326172 C-6.88931887 399.05870343 0.74336914 403.90507141 9.0234375 408.0625 C9.84727936 408.48202942 10.67112122 408.90155884 11.51992798 409.33380127 C14.17743388 410.68589138 16.83870954 412.0303769 19.5 413.375 C21.35840781 414.3193282 23.21647792 415.26432128 25.07421875 416.20996094 C27.85417662 417.62499028 30.63429372 419.03969095 33.41546631 420.45233154 C40.67203257 424.13850626 47.9052564 427.86713686 55.125 431.625 C64.90556324 436.70923261 74.69908213 441.7676611 84.5 446.8125 C96.05385434 452.76002278 107.600949 458.7203247 119.140625 464.6953125 C125.66997271 468.07520352 132.20361345 471.44658279 138.7421875 474.80859375 C139.83777985 475.37213058 139.83777985 475.37213058 140.95550537 475.947052 C144.48591576 477.76293855 148.01684387 479.5778016 151.54882812 481.390625 C152.19897888 481.72498566 152.84912964 482.05934631 153.51898193 482.40383911 C154.804315 483.064725 156.09031725 483.7243112 157.37701416 484.38253784 C160.69179777 486.08628803 163.97213721 487.83479449 167.22363281 489.65673828 C167.89480133 490.02859756 168.56596985 490.40045685 169.25747681 490.78358459 C170.53090985 491.4919432 171.79878836 492.21042229 173.05966187 492.94090271 C176.90067357 495.06760947 179.74458434 495.99591629 184.125 495.375 C185.95731565 494.28409982 185.95731565 494.28409982 187.30859375 492.59375 C187.84000977 492.00303711 188.37142578 491.41232422 188.91894531 490.80371094 C189.73250488 489.84899902 189.73250488 489.84899902 190.5625 488.875 C191.13452148 488.23079102 191.70654297 487.58658203 192.29589844 486.92285156 C193.92126824 485.08656297 195.52511254 483.23348195 197.125 481.375 C197.81207031 480.59640625 198.49914062 479.8178125 199.20703125 479.015625 C200.29558265 477.78176346 201.37793261 476.54239489 202.453125 475.296875 C204.48258073 472.96394926 206.552647 470.66988755 208.625 468.375 C211.8666171 464.78352878 215.06613523 461.16058671 218.23828125 457.5078125 C221.3307745 454.01195056 224.51655853 450.60100816 227.6953125 447.18359375 C232.70763852 441.38960273 235.891571 436.26780482 238.23828125 429.03515625 C238.49755905 428.26819931 238.75683685 427.50124237 239.02397156 426.71104431 C239.83960237 424.29008951 240.63877273 421.86407735 241.4375 419.4375 C241.99175379 417.78283938 242.54708255 416.12853842 243.10351562 414.47460938 C244.45646338 410.4454542 245.79468972 406.4116831 247.125 402.375 C245.69341553 402.1416394 245.69341553 402.1416394 244.23291016 401.90356445 C149.9061357 386.49506829 57.63420312 360.79151956 -43.71484375 282.3515625 C-45.75615416 280.48374502 -47.83688623 278.67552609 -49.9375 276.875 C-51.25480489 275.71376135 -52.5671794 274.54690983 -53.875 273.375 C-54.59429687 272.73433594 -55.31359375 272.09367187 -56.0546875 271.43359375 C-67.08094117 261.0750198 -74.58054619 248.91942374 -75.27075195 233.56835938 C-75.52107842 221.16622003 -72.01533585 210.53693893 -64.875 200.375 C-64.43542969 199.73949219 -63.99585938 199.10398438 -63.54296875 198.44921875 C-56.68664813 189.53797783 -45.29829316 184.0246207 -34.5 181.625 C-33.30375 181.5425 -32.1075 181.46 -30.875 181.375 C-30.09278076 181.31908691 -29.31056152 181.26317383 -28.50463867 181.20556641 C-19.84708012 180.88099368 -12.2237307 182.69545558 -3.92959595 184.8788147 C0.15520705 185.95076938 4.2533184 186.96913669 8.3515625 187.98828125 C9.17772568 188.1943248 10.00388885 188.40036835 10.85508728 188.61265564 C23.5048295 191.73916173 36.29218596 194.12716301 49.125 196.375 C50.20120605 196.56400879 51.27741211 196.75301758 52.38623047 196.94775391 C79.37868371 201.59265453 106.69742424 204.10828158 134 206.0625 C134.84312744 206.12325714 135.68625488 206.18401428 136.55493164 206.24661255 C142.40938134 206.66320121 148.26560094 207.03529943 154.125 207.375 C155.39991806 207.45018356 155.39991806 207.45018356 156.70059204 207.52688599 C173.92193128 208.50683178 191.13066083 208.49753391 208.37225342 208.44366455 C212.08084522 208.43322655 215.78944446 208.42882422 219.49804688 208.42382812 C226.70705069 208.41326994 233.9160191 208.39632391 241.125 208.375 C239.89279264 204.12412849 238.65035348 199.87630992 237.40625 195.62890625 C236.89046387 193.84885193 236.89046387 193.84885193 236.36425781 192.03283691 C233.36622568 181.82732638 229.74485954 171.94703062 225.73242188 162.10131836 C225.125 160.375 225.125 160.375 225.125 158.375 C224.14567253 158.38499275 224.14567253 158.38499275 223.14656067 158.39518738 C216.34962896 158.46157225 209.55278941 158.50681387 202.75561523 158.53979492 C200.21911885 158.55487863 197.68264852 158.57534831 195.14624023 158.60131836 C191.49977178 158.63771881 187.85364827 158.65473082 184.20703125 158.66796875 C182.50677544 158.69119453 182.50677544 158.69119453 180.77217102 158.71488953 C179.71144882 158.71511612 178.65072662 158.71534271 177.55786133 158.71557617 C176.16220695 158.72556892 176.16220695 158.72556892 174.73835754 158.73576355 C171.55838396 158.29678092 169.70116121 157.26580548 167.125 155.375 C165.625 152.5625 165.625 152.5625 165.125 149.375 C167.21802326 143.82848837 167.21802326 143.82848837 170.125 142.375 C171.63664392 142.28522272 173.15220179 142.25742567 174.66650391 142.26147461 C176.07774033 142.26158791 176.07774033 142.26158791 177.51748657 142.26170349 C179.04410416 142.26944542 179.04410416 142.26944542 180.6015625 142.27734375 C182.16213882 142.27946617 182.16213882 142.27946617 183.75424194 142.28163147 C187.08619021 142.28724134 190.41807195 142.29979553 193.75 142.3125 C196.00520736 142.31751373 198.26041578 142.32207686 200.515625 142.32617188 C206.05210614 142.33721397 211.58854832 142.35396173 217.125 142.375 C215.56686441 139.53534325 214.0026802 136.6990603 212.4375 133.86328125 C212.00244141 133.07022583 211.56738281 132.27717041 211.11914062 131.46008301 C201.30644768 113.71092035 189.12938676 97.98849383 175.125 83.375 C174.41472656 82.62347656 173.70445312 81.87195313 172.97265625 81.09765625 C159.58628325 67.27328332 143.04435436 56.38971341 126.125 47.375 C125.21379395 46.88652588 125.21379395 46.88652588 124.28417969 46.38818359 C104.36951553 35.8120634 83.30128566 28.42606335 61.375 23.2265625 C60.67802002 23.05737305 59.98104004 22.88818359 59.26293945 22.71386719 C57.4651638 22.28630758 55.66052767 21.88787273 53.85546875 21.4921875 C50.4163175 20.08503835 49.56216303 18.75536937 48.125 15.375 C48.18949009 11.63457491 48.31418984 9.34173519 50.75 6.4375 C55.92385 4.12288289 61.41860304 5.48186208 66.703125 6.87890625 C67.93691895 7.20366943 69.17071289 7.52843262 70.44189453 7.86303711 C71.75324174 8.22004718 73.06427122 8.5782261 74.375 8.9375 C75.04384216 9.11862335 75.71268433 9.2997467 76.40179443 9.48635864 C87.55220897 12.51488891 98.45662581 15.91498509 109.125 20.375 C109.93050293 20.71112305 110.73600586 21.04724609 111.56591797 21.39355469 C147.5846202 36.62607221 179.94706059 59.31397153 204.125 90.375 C204.83011719 91.26316406 205.53523438 92.15132813 206.26171875 93.06640625 C253.18598978 153.63831087 271.22576088 236.41682663 271.29296875 311.86328125 C271.29620095 313.21827729 271.29956628 314.57327302 271.30305481 315.92826843 C271.30898798 318.75272424 271.31090107 321.57714975 271.31030273 324.40161133 C271.31022201 327.23924202 271.31708885 330.07670944 271.33081055 332.91430664 C271.57346594 383.95322586 271.57346594 383.95322586 263.60546875 407.3515625 C263.26502029 408.36165375 262.92457184 409.371745 262.57380676 410.41244507 C261.85670149 412.53288977 261.13633242 414.65223327 260.4128418 416.77050781 C259.31451622 419.99408241 258.23394721 423.22325494 257.15429688 426.453125 C256.45159317 428.52380172 255.7478519 430.59412668 255.04296875 432.6640625 C254.56611885 434.0971727 254.56611885 434.0971727 254.07963562 435.55923462 C251.19808 443.90606807 247.32084421 450.43563809 241.25 456.875 C240.37601562 457.8134375 239.50203125 458.751875 238.6015625 459.71875 C237.78429687 460.5953125 236.96703125 461.471875 236.125 462.375 C234.95133756 463.70217947 233.78387015 465.03488476 232.625 466.375 C229.83685902 469.58399244 226.98971815 472.73416444 224.125 475.875 C220.66924587 479.66434126 217.2597711 483.48583698 213.89453125 487.35546875 C211.11586837 490.52670211 208.29009711 493.65469705 205.45703125 496.77734375 C203.87170125 498.54324735 202.30717474 500.32800299 200.76171875 502.12890625 C199.99472656 503.01449219 199.22773438 503.90007812 198.4375 504.8125 C197.75300781 505.61558594 197.06851562 506.41867187 196.36328125 507.24609375 C191.05504996 512.29493503 185.52940445 513.3217472 178.41796875 513.171875 C170.15183327 512.08097271 162.64616983 507.14714234 155.45556641 503.19335938 C142.61975834 496.18550873 129.59109522 489.52949523 116.56988525 482.87466431 C112.31345398 480.69905699 108.05902747 478.51953707 103.8046875 476.33984375 C102.54529861 475.69465034 102.54529861 475.69465034 101.26046753 475.03642273 C93.17969694 470.89442004 85.11775103 466.71674857 77.06005859 462.5300293 C68.29998936 457.97976713 59.52682302 453.45532813 50.75 448.9375 C40.36948877 443.59393369 29.99335936 438.2421087 19.625 432.875 C9.29793012 427.52946521 -1.03627441 422.19795575 -11.375 416.875 C-22.8973622 410.94264175 -34.41249261 404.9965622 -45.921875 399.0390625 C-55.06704964 394.30629697 -64.21991054 389.58855348 -73.375 384.875 C-84.8973622 378.94264175 -96.41249261 372.9965622 -107.921875 367.0390625 C-116.36761776 362.6682635 -124.81966762 358.30981142 -133.27450562 353.95663452 C-135.36781207 352.87870137 -137.46092087 351.80038549 -139.55395508 350.72192383 C-140.24043625 350.36821213 -140.92691742 350.01450043 -141.63420105 349.65007019 C-143.01393639 348.93915279 -144.39366663 348.22822549 -145.77339172 347.51728821 C-149.11548181 345.79548953 -152.45816639 344.07486519 -155.80224609 342.35693359 C-164.17374571 338.05603012 -172.53123286 333.72954475 -180.875 329.375 C-182.51202881 328.52518555 -182.51202881 328.52518555 -184.18212891 327.65820312 C-187.25431479 326.05743504 -190.3160455 324.43837989 -193.375 322.8125 C-194.27114014 322.34803467 -195.16728027 321.88356934 -196.09057617 321.4050293 C-201.84329546 318.31069136 -206.38871791 315.38881747 -208.76538086 308.97045898 C-210.73238407 302.22428577 -211.86677078 295.31050533 -212.9375 288.375 C-213.09798828 287.39144531 -213.25847656 286.40789062 -213.42382812 285.39453125 C-213.950108 282.0593118 -214.42367105 278.72121437 -214.875 275.375 C-214.96540558 274.70711456 -215.05581116 274.03922913 -215.1489563 273.35110474 C-216.98666724 259.34222645 -217.23488759 245.42725153 -217.1875 231.3125 C-217.18567719 230.18604065 -217.18385437 229.0595813 -217.18197632 227.89898682 C-217.13734387 211.52280186 -216.70630249 195.54009178 -213.875 179.375 C-213.7193457 178.39241211 -213.56369141 177.40982422 -213.40332031 176.39746094 C-209.90170903 154.48618078 -203.51441101 131.85370826 -193.0546875 112.1875 C-191.32570246 108.06541646 -191.36519572 104.82054839 -192.85302734 100.60180664 C-193.3011377 99.67231201 -193.74924805 98.74281738 -194.2109375 97.78515625 C-194.94183594 96.23731445 -194.94183594 96.23731445 -195.6875 94.65820312 C-196.203125 93.59537109 -196.71875 92.53253906 -197.25 91.4375 C-206.3086894 72.54990269 -206.3086894 72.54990269 -203.875 62.375 C-200.45748828 55.29278135 -195.96630749 51.47670785 -189.0625 48 C-188.1972168 47.5457666 -187.33193359 47.0915332 -186.44042969 46.62353516 C-144.67646706 25.10540422 -99.18106125 10.83779983 -52.875 3.375 C-51.87388184 3.20838867 -50.87276367 3.04177734 -49.84130859 2.87011719 C-33.28211178 0.22655676 -16.7301502 0.06493472 0 0 Z M-200.875 209.375 C-202.44582367 237.76380879 -200.89778879 265.16591806 -195.9375 293.1875 C-195.79207764 294.05898682 -195.64665527 294.93047363 -195.49682617 295.82836914 C-195.3444751 296.63395264 -195.19212402 297.43953613 -195.03515625 298.26953125 C-194.90761963 298.96925049 -194.78008301 299.66896973 -194.64868164 300.38989258 C-192.25163789 306.54021216 -185.53258491 308.83894958 -180.01171875 311.59375 C-179.02871292 312.09233521 -178.04570709 312.59092041 -177.03291321 313.10461426 C-173.87977168 314.70211182 -170.72139383 316.28891219 -167.5625 317.875 C-163.46095103 319.94537045 -159.36143819 322.01975969 -155.26171875 324.09375 C-154.23624939 324.61153519 -153.21078003 325.12932037 -152.15423584 325.66279602 C-143.1499578 330.21604451 -134.20461111 334.87787471 -125.26586914 339.55810547 C-120.33178603 342.14039348 -115.38482586 344.69666374 -110.4296875 347.23828125 C-109.70084854 347.61222015 -108.97200958 347.98615906 -108.22108459 348.37142944 C-105.32992962 349.85396585 -102.4381464 351.33527088 -99.54589844 352.81567383 C-97.36073966 353.93456589 -95.17636973 355.05498427 -92.9921875 356.17578125 C-92.30122986 356.52931671 -91.61027222 356.88285217 -90.89837646 357.24710083 C-87.5726797 358.95594258 -84.27027575 360.69458968 -81.00097656 362.50927734 C-80.39883331 362.84211227 -79.79669006 363.1749472 -79.17630005 363.51786804 C-77.55370342 364.42019265 -75.9370256 365.33313758 -74.32080078 366.24682617 C-73.51368652 366.61912354 -72.70657227 366.9914209 -71.875 367.375 C-71.215 367.045 -70.555 366.715 -69.875 366.375 C-70.91660278 365.43950317 -70.91660278 365.43950317 -71.97924805 364.48510742 C-79.80624886 357.40844466 -87.33787965 350.06751383 -94.78588867 342.59448242 C-96.69922194 340.67574495 -98.61790504 338.76247246 -100.53710938 336.84960938 C-106.53111726 330.85884941 -112.39237671 324.84321932 -117.875 318.375 C-119.49467817 316.59929779 -121.11911718 314.82791693 -122.75 313.0625 C-126.81794714 308.60246157 -130.67278936 304.01868705 -134.4609375 299.3203125 C-136.70533237 296.58200549 -139.00033636 293.9005547 -141.32128906 291.22753906 C-146.35466326 285.4285605 -151.13449391 279.53280436 -155.68359375 273.33984375 C-157.92453213 270.30798594 -160.23746647 267.34272573 -162.5625 264.375 C-173.53677182 250.19359557 -183.38331922 235.24677157 -192.9140625 220.0703125 C-196.30381136 214.66265075 -196.30381136 214.66265075 -199.875 209.375 C-200.205 209.375 -200.535 209.375 -200.875 209.375 Z M-49.90625 207.7578125 C-57.2612426 217.32463258 -60.01029823 225.27596456 -58.875 237.375 C-55.15952145 259.88642885 -22.97666149 279.88546044 -5.875 292.375 C3.30017362 298.91074011 12.66013301 305.17734207 22.1875 311.1875 C22.86014893 311.61417969 23.53279785 312.04085937 24.22583008 312.48046875 C27.43253826 314.65518666 27.43253826 314.65518666 31.125 315.375 C31.13379936 314.53934761 31.13379936 314.53934761 31.14277649 313.68681335 C31.20664414 307.89544539 31.29104596 302.10463656 31.38745117 296.3137207 C31.42073322 294.15168625 31.44875485 291.98956423 31.47143555 289.82739258 C31.50492108 286.72178782 31.557234 283.61698802 31.61328125 280.51171875 C31.61967117 279.54288254 31.6260611 278.57404633 31.63264465 277.57585144 C31.65243881 276.6751442 31.67223297 275.77443695 31.69262695 274.84643555 C31.70373001 274.05367722 31.71483307 273.26091888 31.72627258 272.44413757 C32.22245818 269.86925502 33.08492733 268.97452055 35.125 267.375 C37.0625 266.90625 37.0625 266.90625 39.125 266.875 C39.805625 266.8440625 40.48625 266.813125 41.1875 266.78125 C43.125 267.375 43.125 267.375 44.71907043 269.57255554 C46.24064739 272.60552036 46.5172096 274.44216424 46.55737305 277.80786133 C46.57716721 278.86858353 46.59696136 279.92930573 46.61735535 281.02217102 C46.62374527 282.1556749 46.63013519 283.28917877 46.63671875 284.45703125 C46.65466995 285.62634689 46.67262115 286.79566254 46.69111633 288.00041199 C46.74523057 291.72940482 46.77911968 295.45826954 46.8125 299.1875 C46.84567197 301.71811679 46.88016151 304.24871667 46.91601562 306.77929688 C47.00095789 312.97774972 47.06930329 319.17621911 47.125 325.375 C51.09437783 327.36105213 55.06408191 329.3464426 59.03466797 331.33007812 C61.26708163 332.44543349 63.49824577 333.56298868 65.72705078 334.68554688 C115.96073099 359.90525046 172.24109383 373.89932382 227.4375 382.75 C228.26390991 382.88368988 229.09031982 383.01737976 229.94177246 383.15512085 C232.31032052 383.53549516 234.6801565 383.90625183 237.05078125 384.2734375 C237.74857193 384.38560104 238.44636261 384.49776459 239.16529846 384.61332703 C243.88259597 385.32696737 248.37099306 385.46863903 253.125 385.375 C254.92154637 367.06271865 255.48978759 348.89420274 255.4375 330.5 C255.4355749 329.1504416 255.43373455 327.80088309 255.43197632 326.45132446 C255.36901109 293.16322426 254.74300046 257.53812097 245.125 225.375 C244.08193947 225.3595388 244.08193947 225.3595388 243.01780701 225.34376526 C223.38632703 225.05134817 203.75537381 224.73435896 184.125 224.375 C182.73009338 224.34953094 182.73009338 224.34953094 181.30700684 224.32354736 C140.58779224 223.55966689 99.03703627 221.00408067 58.82666016 214.23828125 C54.86665916 213.57533258 51.13473496 213.32840801 47.125 213.375 C47.11041748 214.16672607 47.09583496 214.95845215 47.08081055 215.77416992 C47.00621644 219.37076543 46.90959167 222.96644443 46.8125 226.5625 C46.78994141 227.80837891 46.76738281 229.05425781 46.74414062 230.33789062 C46.6909668 232.1409668 46.6909668 232.1409668 46.63671875 233.98046875 C46.61053467 235.08543701 46.58435059 236.19040527 46.55737305 237.32885742 C46.07780391 240.70750458 45.15082168 242.65014691 43.125 245.375 C41.1875 245.96875 41.1875 245.96875 39.125 245.875 C38.444375 245.8646875 37.76375 245.854375 37.0625 245.84375 C34.45971062 245.21404289 33.71692381 244.54871012 32.125 242.375 C31.7942937 239.86771968 31.6367282 237.59362613 31.61328125 235.08203125 C31.59533005 234.37600266 31.57737885 233.66997406 31.55888367 232.94255066 C31.50476822 230.69092759 31.47088278 228.43951657 31.4375 226.1875 C31.40432781 224.65947569 31.36983823 223.13147937 31.33398438 221.60351562 C31.24904175 217.86083011 31.18223752 214.11820759 31.125 210.375 C27.29551291 209.05114399 23.50726665 207.93101575 19.5546875 207.04296875 C18.5028125 206.80400879 17.4509375 206.56504883 16.3671875 206.31884766 C15.25601563 206.06925293 14.14484375 205.8196582 13 205.5625 C-0.22587574 202.57296278 -0.22587574 202.57296278 -6.6796875 200.87109375 C-7.56253418 200.63946533 -8.44538086 200.40783691 -9.35498047 200.16918945 C-10.97397378 199.73926689 -12.59047659 199.29978958 -14.20361328 198.84838867 C-26.84732341 195.50575099 -41.00558602 197.31664898 -49.90625 207.7578125 Z " fill="#000000" transform="translate(228.875,-0.375)"/>
</svg>
